<svg width="134" height="129" viewBox="0 0 134 129" fill="none" xmlns="http://www.w3.org/2000/svg">
<path d="M22.332 37.625C22.332 31.6879 27.3315 26.875 33.4987 26.875H100.499C106.666 26.875 111.665 31.6879 111.665 37.625V102.125C111.665 108.062 106.666 112.875 100.499 112.875H33.4987C27.3315 112.875 22.332 108.062 22.332 102.125V37.625Z" fill="black" fill-opacity="0.15"/>
<path d="M111.665 59.125V102.125C111.665 108.062 106.666 112.875 100.499 112.875H33.4987C27.3315 112.875 22.332 108.062 22.332 102.125V59.125M111.665 59.125V37.625C111.665 31.6879 106.666 26.875 100.499 26.875H83.7487M111.665 59.125H22.332M83.7487 16.125V26.875M83.7487 37.625V26.875M50.2487 16.125V26.875M50.2487 37.625V26.875M22.332 59.125V37.625C22.332 31.6879 27.3315 26.875 33.4987 26.875H50.2487M83.7487 26.875H50.2487" stroke="white" stroke-width="2" stroke-linecap="round" stroke-linejoin="round"/>
</svg>
