<svg width="91" height="91" viewBox="0 0 91 91" fill="none" xmlns="http://www.w3.org/2000/svg">
<path fill-rule="evenodd" clip-rule="evenodd" d="M72.0417 26.5416C76.2298 26.5416 79.625 29.9368 79.625 34.1249V64.4582C79.625 68.6464 76.2298 72.0416 72.0417 72.0416H18.9583C14.7702 72.0416 11.375 68.6464 11.375 64.4582V34.1249C11.375 29.9368 14.7702 26.5416 18.9583 26.5416H28.4375C30.5316 26.5416 32.2292 24.844 32.2292 22.7499C32.2292 20.6558 33.9268 18.9583 36.0208 18.9583H54.9792C57.0732 18.9583 58.7708 20.6558 58.7708 22.7499C58.7708 24.844 60.4684 26.5416 62.5625 26.5416H72.0417ZM45.5 60.6666C51.7822 60.6666 56.875 55.5738 56.875 49.2916C56.875 43.0093 51.7822 37.9166 45.5 37.9166C39.2178 37.9166 34.125 43.0093 34.125 49.2916C34.125 55.5738 39.2178 60.6666 45.5 60.6666Z" fill="black" fill-opacity="0.15"/>
<path d="M79.625 64.4582V34.1249C79.625 29.9368 76.2298 26.5416 72.0417 26.5416H62.5625C60.4684 26.5416 58.7708 24.844 58.7708 22.7499C58.7708 20.6558 57.0732 18.9583 54.9792 18.9583H36.0208C33.9268 18.9583 32.2292 20.6558 32.2292 22.7499C32.2292 24.844 30.5316 26.5416 28.4375 26.5416H18.9583C14.7702 26.5416 11.375 29.9368 11.375 34.1249V64.4582C11.375 68.6464 14.7702 72.0416 18.9583 72.0416H72.0417C76.2298 72.0416 79.625 68.6464 79.625 64.4582Z" stroke="black" stroke-width="2" stroke-linecap="round" stroke-linejoin="round"/>
<path d="M56.875 49.2916C56.875 55.5738 51.7822 60.6666 45.5 60.6666C39.2178 60.6666 34.125 55.5738 34.125 49.2916C34.125 43.0093 39.2178 37.9166 45.5 37.9166C51.7822 37.9166 56.875 43.0093 56.875 49.2916Z" stroke="black" stroke-width="2" stroke-linecap="round" stroke-linejoin="round"/>
</svg>
