<svg width="346" height="331" viewBox="0 0 346 331" fill="none" xmlns="http://www.w3.org/2000/svg">
<g opacity="0.49">
<path d="M173 3.5C266.76 3.5 342.5 76.1744 342.5 165.5C342.5 254.826 266.76 327.5 173 327.5C79.2399 327.5 3.5 254.826 3.5 165.5C3.5 76.1744 79.2399 3.5 173 3.5ZM173 64.127C114.711 64.127 67.1914 109.368 67.1914 165.5C67.1914 221.632 114.711 266.873 173 266.873C231.289 266.873 278.809 221.632 278.809 165.5C278.809 109.368 231.289 64.127 173 64.127Z" fill="#5A4E4E"/>
<path d="M173 3.5C266.76 3.5 342.5 76.1744 342.5 165.5C342.5 254.826 266.76 327.5 173 327.5C79.2399 327.5 3.5 254.826 3.5 165.5C3.5 76.1744 79.2399 3.5 173 3.5ZM173 64.127C114.711 64.127 67.1914 109.368 67.1914 165.5C67.1914 221.632 114.711 266.873 173 266.873C231.289 266.873 278.809 221.632 278.809 165.5C278.809 109.368 231.289 64.127 173 64.127Z" stroke="white" stroke-width="7"/>
<path d="M173 3.5C266.76 3.5 342.5 76.1744 342.5 165.5C342.5 254.826 266.76 327.5 173 327.5C79.2399 327.5 3.5 254.826 3.5 165.5C3.5 76.1744 79.2399 3.5 173 3.5ZM173 64.127C114.711 64.127 67.1914 109.368 67.1914 165.5C67.1914 221.632 114.711 266.873 173 266.873C231.289 266.873 278.809 221.632 278.809 165.5C278.809 109.368 231.289 64.127 173 64.127Z" stroke="#307138" stroke-opacity="0.44" stroke-width="7"/>
</g>
</svg>
