<svg width="91" height="91" viewBox="0 0 91 91" fill="none" xmlns="http://www.w3.org/2000/svg">
<path d="M45.3589 70.3342L75.8333 41.593L66.4489 32.7424C68.9378 30.395 70.3361 27.2114 70.3361 23.8917C70.3361 20.5721 68.9378 17.3884 66.4489 15.0411C63.96 12.6937 60.5844 11.375 57.0645 11.375C53.5447 11.375 50.169 12.6937 47.6801 15.0411L17.2057 43.7823C13.4724 47.3033 11.375 52.0788 11.375 57.0583C11.375 62.0377 13.4724 66.8132 17.2057 70.3342C20.9391 73.8553 26.0026 75.8333 31.2823 75.8333C36.5621 75.8333 41.6256 73.8553 45.3589 70.3342Z" fill="black" fill-opacity="0.15"/>
<path d="M75.8333 41.593L45.3589 70.3342C41.6256 73.8553 36.5621 75.8333 31.2823 75.8333C26.0026 75.8333 20.9391 73.8553 17.2057 70.3342C13.4724 66.8132 11.375 62.0377 11.375 57.0582C11.375 52.0788 13.4724 47.3033 17.2057 43.7823L47.6801 15.0411C50.169 12.6937 53.5447 11.375 57.0645 11.375C60.5844 11.375 63.96 12.6937 66.4489 15.0411C68.9378 17.3884 70.3361 20.5721 70.3361 23.8917C70.3361 27.2114 68.9378 30.395 66.4489 32.7424L35.9414 61.4836C34.6969 62.6573 33.0091 63.3166 31.2492 63.3166C29.4892 63.3166 27.8014 62.6573 26.557 61.4836C25.3125 60.3099 24.6134 58.7181 24.6134 57.0582C24.6134 55.3984 25.3125 53.8066 26.557 52.6329L54.7101 26.1122" stroke="black" stroke-width="2" stroke-linecap="round" stroke-linejoin="round"/>
</svg>
